<?xml version="1.0" standalone="no"?>
<!DOCTYPE svg PUBLIC "-//W3C//DTD SVG 20010904//EN"
 "http://www.w3.org/TR/2001/REC-SVG-20010904/DTD/svg10.dtd">
<svg version="1.0" xmlns="http://www.w3.org/2000/svg"
 viewBox="0 0 2600.000000 2600.000000"
 preserveAspectRatio="xMidYMid meet">
<metadata>
Created by potrace 1.15, written by Peter Selinger 2001-2017
</metadata>
<g transform="translate(0.000000,2600.000000) scale(0.100000,-0.100000)"
fill="#56C9B6" stroke="none">
<path d="M12235 21343 c-3 -10 -254 -704 -556 -1544 l-549 -1525 0 -192 0
-192 -3397 -3 -3398 -2 -76 -22 c-411 -117 -705 -386 -838 -767 -66 -188 -61
255 -61 -5416 0 -5671 -5 -5228 61 -5416 138 -396 457 -676 884 -777 l90 -22
9065 -3 c5896 -2 9112 1 9200 7 230 17 415 79 594 201 285 192 476 509 516
855 6 59 10 1363 10 3845 l0 3755 528 245 527 246 0 898 0 898 -539 252 -538
251 -23 90 c-108 421 -422 733 -864 858 l-76 21 -1870 6 -1870 5 -6 210 -6
210 -549 1520 -549 1520 -2852 3 c-2708 2 -2851 1 -2858 -15z m3365 -4158
c340 -37 626 -92 930 -180 1704 -493 3042 -1831 3535 -3535 195 -675 251
-1390 164 -2085 -341 -2707 -2732 -4691 -5449 -4525 -2190 135 -4057 1628
-4665 3730 -142 490 -200 908 -200 1440 0 339 8 448 51 750 237 1664 1294
3125 2811 3884 635 317 1286 489 2043 540 126 9 643 -4 780 -19z m-8825 -1500
c266 -50 465 -280 465 -535 0 -250 -171 -464 -430 -537 -61 -17 -122 -18 -960
-18 l-895 0 -81 27 c-215 73 -366 247 -396 457 -40 272 163 543 452 605 99 22
1735 22 1845 1z"/>
<path d="M14905 15959 c-1497 -65 -2845 -1002 -3435 -2388 -300 -705 -387
-1488 -249 -2254 167 -930 691 -1793 1447 -2385 510 -398 1118 -669 1745 -776
264 -45 338 -51 677 -51 339 0 413 6 677 51 939 160 1799 672 2402 1429 424
532 703 1167 806 1832 35 231 45 361 45 613 0 252 -10 382 -45 613 -205 1328
-1101 2477 -2344 3007 -417 178 -900 290 -1311 305 -74 3 -160 7 -190 8 -30 2
-131 0 -225 -4z"/>
<path d="M7330 19465 l0 -915 1808 2 1807 3 3 913 2 912 -1810 0 -1810 0 0
-915z"/>
<path d="M4520 18920 l0 -370 1225 0 1225 0 0 370 0 370 -1225 0 -1225 0 0
-370z"/>
</g>
</svg>
