<svg width="38" height="40" viewBox="0 0 38 40" fill="none" xmlns="http://www.w3.org/2000/svg">
<path d="M29.3366 11.7872C29.2043 11.7683 29.0721 11.7683 28.9399 11.7872C26.0125 11.6928 23.6895 9.29419 23.6895 6.34788C23.6895 3.34491 26.1258 0.889648 29.1477 0.889648C32.1507 0.889648 34.6059 3.32602 34.6059 6.34788C34.587 9.29419 32.264 11.6928 29.3366 11.7872Z" fill="#56C9B6"/>
<path d="M35.4984 24.8764C33.3831 26.2929 30.418 26.8217 27.6794 26.4629C28.3971 24.9142 28.7748 23.1955 28.7937 21.3824C28.7937 19.4937 28.3782 17.6995 27.585 16.1319C30.3802 15.7542 33.3454 16.283 35.4796 17.6995C38.4636 19.6637 38.4636 22.8933 35.4984 24.8764Z" fill="#56C9B6"/>
<path d="M8.39354 11.7872C8.52575 11.7683 8.65795 11.7683 8.79016 11.7872C11.7176 11.6928 14.0406 9.29419 14.0406 6.34788C14.0406 3.32602 11.6043 0.889648 8.58241 0.889648C5.57944 0.889648 3.14307 3.32602 3.14307 6.34788C3.14307 9.29419 5.46612 11.6928 8.39354 11.7872Z" fill="#56C9B6"/>
<path d="M8.60285 21.3827C8.60285 23.2147 8.99947 24.9523 9.71716 26.5199C7.05415 26.8032 4.27782 26.2366 2.23806 24.8956C-0.746021 22.9125 -0.746021 19.6829 2.23806 17.6998C4.25893 16.34 7.11081 15.7923 9.79271 16.0945C9.01835 17.6809 8.60285 19.4752 8.60285 21.3827Z" fill="#56C9B6"/>
<path d="M19.1224 27.0854C18.9713 27.0666 18.8014 27.0666 18.6314 27.0854C15.1563 26.9721 12.3799 24.1203 12.3799 20.6073C12.3988 17.0189 15.2885 14.1104 18.8958 14.1104C22.4843 14.1104 25.3928 17.0189 25.3928 20.6073C25.3739 24.1203 22.6165 26.9721 19.1224 27.0854Z" fill="#56C9B6"/>
<path d="M12.9841 30.9962C10.1322 32.9037 10.1322 36.0389 12.9841 37.9275C16.2327 40.0995 21.5587 40.0995 24.8072 37.9275C27.6591 36.02 27.6591 32.8848 24.8072 30.9962C21.5776 28.8242 16.2515 28.8242 12.9841 30.9962Z" fill="#56C9B6"/>
</svg>
