<svg width="39" height="39" viewBox="0 0 39 39" fill="none" xmlns="http://www.w3.org/2000/svg">
<path d="M31.5239 28.3841L32.2703 34.4322C32.4617 36.0208 30.7583 37.1309 29.3994 36.3079L22.777 32.3651C22.3177 32.0972 22.2029 31.523 22.4517 31.0636C23.4087 29.3028 23.9254 27.3123 23.9254 25.3217C23.9254 18.3166 17.9156 12.613 10.5276 12.613C9.0156 12.613 7.54185 12.8427 6.1638 13.302C5.45563 13.5317 4.7666 12.881 4.93886 12.1537C6.68057 5.18684 13.3794 0 21.3798 0C30.72 0 38.2802 7.06253 38.2802 15.7711C38.2802 20.9388 35.6197 25.5131 31.5239 28.3841Z" fill="#56C9B6"/>
<path d="M21.0536 25.3212C21.0536 27.5988 20.2115 29.7042 18.7951 31.3693C16.9003 33.6661 13.8954 35.1398 10.5268 35.1398L5.53136 38.1065C4.68921 38.6232 3.61739 37.9151 3.73223 36.9389L4.21072 33.1684C1.64601 31.3884 0 28.5366 0 25.3212C0 21.9526 1.79913 18.986 4.55523 17.2251C6.25866 16.115 8.3066 15.4834 10.5268 15.4834C16.3453 15.4834 21.0536 19.8855 21.0536 25.3212Z" fill="#56C9B6"/>
</svg>
