<svg width="388" height="389" viewBox="0 0 388 389" fill="none" xmlns="http://www.w3.org/2000/svg">
<path d="M307.192 324.212H80.9292C76.6429 324.212 72.5321 325.915 69.5012 328.946C66.4703 331.976 64.7676 336.087 64.7676 340.374C64.7676 344.66 66.4703 348.771 69.5012 351.802C72.5321 354.832 76.6429 356.535 80.9292 356.535H307.192C311.478 356.535 315.589 354.832 318.62 351.802C321.651 348.771 323.354 344.66 323.354 340.374C323.354 336.087 321.651 331.976 318.62 328.946C315.589 325.915 311.478 324.212 307.192 324.212Z" fill="#ABA9AA"/>
<path d="M80.9337 291.886H82.3882L149.782 285.745C157.165 285.009 164.07 281.756 169.338 276.532L314.792 131.078C320.438 125.114 323.489 117.155 323.277 108.945C323.065 100.735 319.607 92.9445 313.661 87.2798L269.378 42.9969C263.599 37.5681 256.025 34.4532 248.099 34.2446C240.172 34.036 232.445 36.7483 226.388 41.8656L80.9337 187.32C75.7097 192.588 72.457 199.493 71.7215 206.876L64.772 274.27C64.5543 276.637 64.8615 279.023 65.6716 281.258C66.4817 283.493 67.7749 285.521 69.4589 287.199C70.969 288.697 72.76 289.882 74.7291 290.686C76.6982 291.491 78.8067 291.898 80.9337 291.886ZM246.914 65.6232L291.035 109.744L258.712 141.26L215.398 97.9464L246.914 65.6232ZM103.075 209.623L194.065 119.28L237.701 162.916L147.196 253.421L98.7114 257.947L103.075 209.623Z" fill="#ABA9AA"/>
</svg>
