<?xml version="1.0" ?><svg style="enable-background:new 0 0 512 512;" version="1.1" viewBox="0 0 512 512" xml:space="preserve" xmlns="http://www.w3.org/2000/svg" xmlns:xlink="http://www.w3.org/1999/xlink"><g id="_x31_66_x2C__Heart_x2C__Love_x2C__Like_x2C__Twitter"><g id="XMLID_5036_"><path d="M255.937,461.368c-2.652,0-5.196-1.054-7.071-2.929    c-26.65-26.65-53.021-50.236-78.522-73.046C132.019,351.116,95.82,318.74,69.956,285.047    c-29.304-38.173-42.952-74.699-42.952-114.948c0-65.874,53.592-119.467,119.466-119.467c55.362,0,84.611,26.631,109.467,70.721    c24.856-44.09,54.105-70.721,109.467-70.721c65.944,0,119.594,53.593,119.594,119.467c0,40.231-13.65,76.743-42.958,114.903    c-25.866,33.679-62.061,66.036-100.38,100.294c-25.547,22.839-51.963,46.454-78.651,73.144    C261.132,460.314,258.589,461.368,255.937,461.368z M146.47,70.632c-54.846,0-99.466,44.621-99.466,99.467    c0,78.147,60.313,132.091,136.672,200.387c23.462,20.985,47.653,42.622,72.261,66.802c24.648-24.219,48.886-45.888,72.393-66.902    c76.356-68.263,136.668-122.181,136.668-200.287c0-54.846-44.678-99.467-99.594-99.467c-46.531,0-71.896,19.322-100.522,76.572    c-1.694,3.388-5.156,5.528-8.944,5.528l0,0c-3.788,0-7.25-2.14-8.944-5.528C218.367,89.954,193.001,70.632,146.47,70.632z" id="XMLID_8603_" style="fill:#3E3C3C;"/></g></g><g id="Layer_1"/></svg>