<svg width="45" height="45" viewBox="0 0 45 45" fill="none" xmlns="http://www.w3.org/2000/svg">
<path d="M35.7564 9.24202C32.6799 6.14546 28.6195 4.2193 24.2751 3.7956C19.9307 3.3719 15.5746 4.47723 11.9578 6.92102C8.34095 9.36481 5.6901 12.9939 4.46222 17.1827C3.23433 21.3714 3.50636 25.8573 5.23141 29.867C5.4112 30.2397 5.4702 30.6592 5.40016 31.067L3.75016 38.9983C3.68659 39.3024 3.69957 39.6175 3.78794 39.9153C3.8763 40.2131 4.03728 40.4843 4.25641 40.7045C4.43604 40.8829 4.64992 41.023 4.88516 41.1164C5.1204 41.2099 5.37212 41.2547 5.62516 41.2483H6.00016L14.0252 39.6358C14.433 39.5867 14.8466 39.6449 15.2252 39.8045C19.2348 41.5296 23.7208 41.8016 27.9095 40.5737C32.0983 39.3458 35.7274 36.695 38.1712 33.0782C40.615 29.4614 41.7203 25.1053 41.2966 20.7609C40.8729 16.4165 38.9467 12.356 35.8502 9.27952L35.7564 9.24202Z" fill="#56C9B6"/>
<path d="M25.6635 16.627C24.3821 16.627 23.2351 17.25 22.5201 18.2057C21.8051 17.25 20.6581 16.627 19.3767 16.627C17.2033 16.627 15.4404 18.3969 15.4404 20.5845C15.4404 21.427 15.5749 22.2058 15.8086 22.9279C16.9272 26.4677 20.375 28.5845 22.0812 29.1651C22.3219 29.25 22.7183 29.25 22.959 29.1651C24.6652 28.5845 28.113 26.4677 29.2316 22.9279C29.4653 22.2058 29.5998 21.427 29.5998 20.5845C29.5998 18.3969 27.8369 16.627 25.6635 16.627Z" fill="white"/>
</svg>
