<svg width="18" height="18" viewBox="0 0 18 18" fill="none" xmlns="http://www.w3.org/2000/svg">
<path d="M6.00299 0C3.76863 0 1.95215 1.81648 1.95215 4.05084C1.95215 6.24256 3.6663 8.01641 5.90066 8.09316C5.96888 8.08463 6.0371 8.08463 6.08827 8.09316H6.13091H6.14797C8.33116 8.01641 10.0453 6.24256 10.0538 4.05084C10.0538 1.81648 8.23735 0 6.00299 0Z" fill="#757D87"/>
<path d="M10.336 10.3606C7.95668 8.77434 4.07643 8.77434 1.68003 10.3606C0.596966 11.0855 0 12.0662 0 13.1151C0 14.1641 0.596966 15.1363 1.67151 15.8527C2.86544 16.6543 4.43461 17.0551 6.00378 17.0551C7.57291 17.0551 9.14208 16.6543 10.336 15.8527C11.4106 15.1278 12.0075 14.1556 12.0075 13.0981C11.999 12.0491 11.4106 11.0769 10.336 10.3606Z" fill="#757D87"/>
<path d="M15.3749 4.55261C15.5113 6.20706 14.3344 7.65679 12.7056 7.85293C12.697 7.85293 12.697 7.85293 12.6885 7.85293H12.6629C12.6118 7.85293 12.5606 7.85293 12.518 7.86999C11.6907 7.91263 10.9317 7.64826 10.3604 7.16216C11.2387 6.37762 11.7419 5.20074 11.6396 3.92153C11.5799 3.23075 11.3411 2.59967 10.9829 2.0624C11.307 1.90037 11.6822 1.79803 12.066 1.76392C13.7375 1.61894 15.2299 2.86404 15.3749 4.55261Z" fill="#757D87"/>
<path d="M17.0793 12.4429C17.0111 13.2701 16.4823 13.9865 15.5954 14.4726C14.7426 14.9416 13.6681 15.1634 12.6021 15.1378C13.2161 14.5835 13.5743 13.8927 13.6425 13.1593C13.7278 12.1018 13.2246 11.087 12.2183 10.2768C11.6469 9.82479 10.9817 9.46661 10.2568 9.20224C12.1415 8.65644 14.5124 9.02315 15.9707 10.2C16.7552 10.8311 17.1561 11.6242 17.0793 12.4429Z" fill="#757D87"/>
</svg>
